<svg xmlns="http://www.w3.org/2000/svg" xmlns:xlink="http://www.w3.org/1999/xlink" viewBox="0 0 750 500"><defs><style>.cls-1{isolation:isolate;}.cls-2{fill:url(#Degradado_sin_nombre_381);}.cls-3,.cls-4{opacity:0.1;}.cls-3,.cls-4,.cls-5,.cls-6,.cls-7{mix-blend-mode:overlay;}.cls-3{fill:url(#Degradado_sin_nombre_380);}.cls-4{fill:url(#Degradado_sin_nombre_380-2);}.cls-5{opacity:0.12;fill:url(#Degradado_sin_nombre_380-3);}.cls-6{opacity:0.15;fill:url(#Degradado_sin_nombre_380-4);}.cls-7{opacity:0.2;fill:url(#Degradado_sin_nombre_380-5);}.cls-8{fill:url(#Degradado_sin_nombre_379);}.cls-9{fill:url(#Degradado_sin_nombre_378);}.cls-10{fill:url(#Degradado_sin_nombre_378-2);}.cls-11{fill:url(#Degradado_sin_nombre_377);}.cls-12{fill:url(#Degradado_sin_nombre_376);}.cls-13{fill:url(#Degradado_sin_nombre_375);}.cls-14{fill:#155269;}.cls-15{fill:#155670;}.cls-16{fill:#0e495f;}.cls-17{fill:url(#Degradado_sin_nombre_374);}.cls-18{fill:url(#Degradado_sin_nombre_373);}.cls-19{fill:url(#Degradado_sin_nombre_373-2);}</style><linearGradient id="Degradado_sin_nombre_381" x1="375" y1="389.99" x2="375" gradientUnits="userSpaceOnUse"><stop offset="0.38" stop-color="#edefda"/><stop offset="0.44" stop-color="#e5ecd7"/><stop offset="0.53" stop-color="#cfe4cf"/><stop offset="0.64" stop-color="#aad7c1"/><stop offset="0.76" stop-color="#7ac6af"/><stop offset="1" stop-color="#50909e"/></linearGradient><linearGradient id="Degradado_sin_nombre_380" x1="570.16" y1="94.18" x2="661.05" y2="251.61" gradientTransform="translate(123.51 -235.4) rotate(23.99)" gradientUnits="userSpaceOnUse"><stop offset="0" stop-color="#edefda"/><stop offset="0.02" stop-color="#edefda" stop-opacity="0.98"/><stop offset="0.37" stop-color="#edefda" stop-opacity="0.68"/><stop offset="0.66" stop-color="#edefda" stop-opacity="0.46"/><stop offset="0.88" stop-color="#edefda" stop-opacity="0.33"/><stop offset="1" stop-color="#edefda" stop-opacity="0.28"/></linearGradient><linearGradient id="Degradado_sin_nombre_380-2" x1="577.66" y1="107.17" x2="653.55" y2="238.62" gradientTransform="matrix(1, 0, 0, 1, 0, 0)" xlink:href="#Degradado_sin_nombre_380"/><linearGradient id="Degradado_sin_nombre_380-3" x1="585.15" y1="120.16" x2="646.05" y2="225.64" gradientTransform="matrix(1, 0, 0, 1, 0, 0)" xlink:href="#Degradado_sin_nombre_380"/><linearGradient id="Degradado_sin_nombre_380-4" x1="592.65" y1="133.15" x2="638.55" y2="212.65" gradientTransform="matrix(1, 0, 0, 1, 0, 0)" xlink:href="#Degradado_sin_nombre_380"/><linearGradient id="Degradado_sin_nombre_380-5" x1="600.15" y1="146.13" x2="631.06" y2="199.67" gradientTransform="translate(686.66 -462.56) rotate(80.69)" xlink:href="#Degradado_sin_nombre_380"/><linearGradient id="Degradado_sin_nombre_379" x1="606.4" y1="156.95" x2="624.81" y2="188.84" gradientTransform="translate(687.07 -462.52) rotate(80.73)" gradientUnits="userSpaceOnUse"><stop offset="0" stop-color="#edefda"/><stop offset="0.2" stop-color="#edefda" stop-opacity="0.98"/><stop offset="0.4" stop-color="#edefda" stop-opacity="0.93"/><stop offset="0.59" stop-color="#edefda" stop-opacity="0.85"/><stop offset="0.79" stop-color="#edefda" stop-opacity="0.73"/><stop offset="0.99" stop-color="#edefda" stop-opacity="0.58"/><stop offset="1" stop-color="#edefda" stop-opacity="0.57"/></linearGradient><linearGradient id="Degradado_sin_nombre_378" x1="278.92" y1="363.52" x2="278.92" y2="187.21" gradientUnits="userSpaceOnUse"><stop offset="0.49" stop-color="#b3dbcf"/><stop offset="0.89" stop-color="#a6d0c0"/></linearGradient><linearGradient id="Degradado_sin_nombre_378-2" x1="500.78" y1="370.38" x2="500.78" y2="183.71" xlink:href="#Degradado_sin_nombre_378"/><linearGradient id="Degradado_sin_nombre_377" x1="375" y1="430" x2="375" y2="153.71" gradientUnits="userSpaceOnUse"><stop offset="0.35" stop-color="#91d5c1"/><stop offset="0.8" stop-color="#84bfb0"/></linearGradient><linearGradient id="Degradado_sin_nombre_376" x1="560.43" y1="430" x2="560.43" y2="153.71" gradientUnits="userSpaceOnUse"><stop offset="0" stop-color="#598da6"/><stop offset="1" stop-color="#4b8095"/></linearGradient><linearGradient id="Degradado_sin_nombre_375" x1="269.69" y1="430" x2="269.69" y2="177.26" gradientUnits="userSpaceOnUse"><stop offset="0" stop-color="#357186"/><stop offset="1" stop-color="#2c5977"/></linearGradient><linearGradient id="Degradado_sin_nombre_374" x1="375" y1="500" x2="375" y2="395.26" gradientUnits="userSpaceOnUse"><stop offset="0" stop-color="#bedbcf"/><stop offset="0.06" stop-color="#a8d1c2"/><stop offset="0.14" stop-color="#93c8b7"/><stop offset="0.21" stop-color="#87c3af"/><stop offset="0.29" stop-color="#83c1ad"/><stop offset="0.36" stop-color="#81c0ab" stop-opacity="0.94"/><stop offset="0.49" stop-color="#7bbca7" stop-opacity="0.76"/><stop offset="0.66" stop-color="#71b6a1" stop-opacity="0.49"/><stop offset="0.88" stop-color="#63ad98" stop-opacity="0.11"/><stop offset="0.93" stop-color="#5fab95" stop-opacity="0"/></linearGradient><linearGradient id="Degradado_sin_nombre_373" x1="162.62" y1="500" x2="162.62" y2="311.12" gradientUnits="userSpaceOnUse"><stop offset="0" stop-color="#0b2e40"/><stop offset="1" stop-color="#0b3751"/></linearGradient><linearGradient id="Degradado_sin_nombre_373-2" x1="588.94" x2="588.94" y2="383.08" xlink:href="#Degradado_sin_nombre_373"/></defs><g class="cls-1"><g id="BACKGROUND"><rect class="cls-2" width="750" height="389.99"/><circle class="cls-3" cx="615.6" cy="172.9" r="90.91" transform="translate(-17.11 265.28) rotate(-23.99)"/><path class="cls-4" d="M615.6,248.81a75.91,75.91,0,1,1,75.91-75.91A76,76,0,0,1,615.6,248.81Z"/><path class="cls-5" d="M615.6,233.81a60.91,60.91,0,1,1,60.91-60.91A61,61,0,0,1,615.6,233.81Z"/><path class="cls-6" d="M615.6,218.81a45.91,45.91,0,1,1,45.91-45.91A46,46,0,0,1,615.6,218.81Z"/><circle class="cls-7" cx="615.6" cy="172.9" r="30.91" transform="translate(345.41 752.43) rotate(-80.69)"/><circle class="cls-8" cx="615.6" cy="172.9" r="18.41" transform="translate(345.79 752.6) rotate(-80.73)"/><polygon class="cls-9" points="128.69 290.26 180.97 244.21 207.17 225.6 213.97 225.6 251.81 187.21 299 222.23 309.07 222.23 348.86 252.54 429.16 363.52 128.69 363.52 128.69 290.26"/><polygon class="cls-10" points="355.68 290.44 390.95 259.38 404.64 253.59 435.18 223.58 445.18 219.89 464.66 203.57 475.72 198.83 489.37 183.71 510.1 194.04 526.3 205.24 535.37 205.24 556.11 222.35 722.64 295.3 722.64 370.38 278.93 370.38 335.21 299.17 355.68 290.44"/><polygon class="cls-11" points="750 213.76 732.06 190.09 723.05 190.09 672.83 153.71 622.33 199.6 618.65 205.79 589.97 214.64 570.71 231.65 554.4 251.76 525.56 269.24 485.81 307.62 451.51 262.15 407.98 237.41 396.97 237.41 345.34 208.81 303.93 240.16 296.5 240.16 267.45 256.88 253.24 260.25 250.49 262.36 238.95 254.37 209.13 241.76 190.38 225.38 169.48 212.14 141.41 207.34 136.86 202.14 81.83 166.25 42.27 204.82 33.97 205.82 0 225.69 0 430 750 430 750 213.76"/><polygon class="cls-12" points="370.86 430 370.86 367.26 551.48 286.18 574.27 251.57 673.18 198.64 715.89 189.42 715.89 176.24 750 153.71 750 430 370.86 430"/><polygon class="cls-13" points="539.38 430 411.29 351.47 362.1 337.57 315.37 307.25 274.58 297.13 240.49 278.99 228.09 273.83 223.63 263.38 134.5 239.59 55.9 191.17 0 177.26 0 430 539.38 430"/><polygon class="cls-14" points="0 230.02 29.34 251.46 41.36 254 60.91 269.76 82.47 274.1 168.9 349.5 187.8 354.09 272.5 403.25 282.6 405.86 322.43 430 0 430 0 230.02"/><polygon class="cls-15" points="750 348.42 720.14 332.62 709.9 332.62 652.81 305.42 595.42 339.72 591.23 344.36 558.63 350.97 536.74 363.68 518.21 378.71 485.42 391.79 425.24 430 750 430 750 348.42"/><polygon class="cls-16" points="699.07 327.26 645.35 336.8 599.98 340.32 566.64 356.89 532.37 368.94 501.81 368.94 446.6 375.97 427.72 375.97 362.9 386.51 290.66 378.48 261.96 377.98 242.51 372.45 186.94 359.9 127.67 356.89 95.26 336.8 38.77 327.26 0 327.26 0 500 750 500 750 329.77 699.07 327.26"/><rect class="cls-17" y="395.26" width="750" height="104.74"/><polygon class="cls-18" points="0 311.12 82.02 363.13 88.01 370.15 134.61 380.18 165.9 399.45 192.38 422.24 239.23 442.06 325.25 500 0 500 0 311.12"/><polygon class="cls-19" points="750 383.08 717.75 398.06 705.78 399.7 686.51 410.75 665.04 413.52 596.94 439.5 578.13 442.5 517.32 473.57 507.28 475.28 427.89 500 750 500 750 383.08"/></g></g></svg>